<?xml version="1.0" standalone="no"?>
<!DOCTYPE svg PUBLIC "-//W3C//DTD SVG 1.1//EN" "http://www.w3.org/Graphics/SVG/1.1/DTD/svg11.dtd">
<svg xmlns="http://www.w3.org/2000/svg">
<metadata>Generated by Fontastic.me</metadata>
<defs>
<font id="gelalpa" horiz-adv-x="512">
<font-face font-family="gelalpa" units-per-em="512" ascent="480" descent="-32"/>
<missing-glyph horiz-adv-x="512" />

<glyph glyph-name="icons" unicode="&#98;" d="M143 143c-47 46-143 42-143 113 0 70 96 67 143 113 46 47 42 142 113 142 71 0 67-95 113-142 47-46 143-43 143-113 0-70-96-67-143-113-46-46-42-142-113-142-71 0-67 96-113 142z"/>
<glyph glyph-name="icons-1" unicode="&#99;" d="M512 0c-171 0-341 0-512 0 0 171 0 341 0 512 171 0 341 0 512 0 0-171 0-341 0-512z m-256 23c18 0 32 7 44 21 7 9 12 19 17 29 7 16 13 31 20 46 12 25 29 44 54 55 14 6 28 12 42 18 12 6 25 12 36 20 29 22 30 67 0 88-9 7-19 13-29 17-15 7-30 13-46 20-26 12-45 30-57 56-6 14-12 28-18 42-5 12-11 23-19 34-22 28-66 28-88 0-7-9-12-19-17-30-7-15-13-30-20-45-12-25-30-44-55-56-15-6-29-12-43-19-12-5-24-11-34-18-30-22-30-67 0-89 9-7 19-12 29-16 15-7 30-13 46-20 25-12 44-29 56-55 5-12 11-25 17-38 5-13 11-26 19-37 12-15 27-23 46-23z"/>
<glyph glyph-name="icons-2" unicode="&#100;" d="M256 1c-44 0-60 37-76 76-10 23-20 48-38 66-17 17-42 27-66 37-39 17-76 32-76 76 0 44 37 59 76 76 24 10 49 20 66 37 18 18 28 43 38 66 16 40 32 76 76 76 44 0 60-36 76-75 10-24 20-49 38-66 17-18 42-28 66-38 39-16 76-32 76-76 0-44-37-59-76-75-24-10-49-21-66-38-18-18-28-42-38-66-16-39-32-76-76-76z m-113 143c18-18 29-43 39-67 16-38 31-75 74-75 43 0 58 37 74 75 11 24 21 49 39 67 17 17 43 28 67 38 38 16 75 31 75 74 0 43-37 58-75 74-24 10-49 21-67 38-18 18-28 43-38 67-17 39-32 75-75 75-43 0-58-36-74-75-11-24-21-49-39-67-18-17-42-28-66-38-39-16-75-31-75-74 0-43 36-58 75-74 24-10 49-21 66-38z"/>
<glyph glyph-name="icons-3" unicode="&#101;" d="M382 0l5 4-253 252 253 252-5 4-257-256z"/>
<glyph glyph-name="icons-4" unicode="&#102;" d="M130 0l-5 4 252 252-252 252 5 4 257-256z"/>
<glyph glyph-name="icons-5" unicode="&#103;" d="M31 352c-4 3-5 7-5 11 0 5 1 9 5 12 6 6 16 6 23 0l202-203 202 203c7 6 17 6 23 0 7-7 7-17 0-23l-213-214c-7-7-17-7-24 0z"/>
<glyph glyph-name="icons-6" unicode="&#104;" d="M31 160c-4-3-5-7-5-11 0-4 1-8 5-12 6-6 16-6 23 0l202 203 202-203c7-6 17-6 23 0 7 7 7 17 0 23l-213 214c-7 7-17 7-24 0z"/>
<glyph glyph-name="icons-7" unicode="&#105;" d="M399 262l-213-213c-7-7-18-7-25 0l-48 48c-7 7-7 18 0 26l152 151-152 152c-7 7-7 19 0 26l48 47c7 8 18 8 25 0l213-212c7-7 7-18 0-25z"/>
<glyph glyph-name="icons-8" unicode="&#106;" d="M399 426l-152-152 152-151c7-8 7-19 0-26l-48-48c-7-7-18-7-26 0l-212 213c-7 7-7 18 0 25l212 212c8 8 19 8 26 0l48-47c7-7 7-19 0-26z"/>
<glyph glyph-name="icons-9" unicode="&#107;" d="M467 256l0-37c0-19-13-36-34-36l-201 0 84-84c6-7 10-16 10-26 0-10-4-19-10-26l-22-21c-6-7-16-11-26-11-9 0-19 4-26 11l-186 186c-6 7-10 16-10 26 0 10 4 19 10 26l186 186c7 7 17 11 26 11 10 0 19-4 26-11l22-21c6-7 10-17 10-26 0-10-4-20-10-26l-84-84 201 0c21 0 34-17 34-37z"/>
<glyph glyph-name="icons-10" unicode="&#108;" d="M467 238c0-10-4-19-11-26l-186-186c-7-7-17-11-26-11-10 0-19 4-26 11l-21 21c-7 7-11 16-11 26 0 10 4 19 11 26l83 84-201 0c-21 0-33 17-33 36l0 37c0 20 12 37 33 37l201 0-83 84c-7 6-11 16-11 26 0 9 4 19 11 25l21 22c7 7 16 11 26 11 9 0 19-4 26-11l186-186c7-7 11-16 11-26z"/>
<glyph glyph-name="icons-11" unicode="&#109;" d="M479 235c0-10-4-19-11-26l-21-22c-7-6-17-10-26-10-10 0-19 4-26 10l-84 84 0-201c0-21-17-34-37-34l-36 0c-20 0-37 13-37 34l0 201-84-84c-7-6-16-10-26-10-9 0-19 4-26 10l-21 22c-7 7-11 16-11 26 0 9 4 19 11 26l186 186c7 7 16 10 26 10 10 0 19-3 26-10l186-186c7-7 11-17 11-26z"/>
<glyph glyph-name="icons-12" unicode="&#110;" d="M479 274c0-9-4-19-11-25l-186-187c-7-6-16-10-26-10-10 0-19 4-26 10l-186 187c-7 6-11 16-11 25 0 10 4 20 11 26l21 22c7 6 17 10 26 10 10 0 19-4 26-10l84-84 0 201c0 20 17 37 37 37l36 0c20 0 37-17 37-37l0-201 84 84c7 6 16 10 26 10 9 0 19-4 26-10l21-22c7-6 11-16 11-26z"/>
<glyph glyph-name="icons-13" unicode="&#111;" d="M55 36l82 0 0 83-82 0z m100 0l92 0 0 83-92 0z m-100 101l82 0 0 92-82 0z m100 0l92 0 0 92-92 0z m-100 110l82 0 0 82-82 0z m210-211l92 0 0 83-92 0z m-110 211l92 0 0 82-92 0z m220-211l82 0 0 83-82 0z m-110 101l92 0 0 92-92 0z m-101 247l0 83c0 4-4 9-9 9l-18 0c-5 0-9-5-9-9l0-83c0-5 4-9 9-9l18 0c5 0 9 4 9 9z m211-247l82 0 0 92-82 0z m-110 110l92 0 0 82-92 0z m110 0l82 0 0 82-82 0z m9 137l0 83c0 4-4 9-9 9l-18 0c-5 0-10-5-10-9l0-83c0-5 5-9 10-9l18 0c5 0 9 4 9 9z m110 19l0-367c0-20-17-36-37-36l-402 0c-20 0-37 16-37 36l0 367c0 20 17 36 37 36l36 0 0 28c0 25 21 45 46 45l18 0c25 0 46-20 46-45l0-28 110 0 0 28c0 25 20 45 46 45l18 0c25 0 46-20 46-45l0-28 36 0c20 0 37-16 37-36z"/>
<glyph glyph-name="icons-14" unicode="&#112;" d="M393 476c46 0 83-37 83-83l0-274c0-46-37-83-83-83l-54 0 0 171 57 0 9 66-66 0 0 42c0 19 6 32 33 32l35 1 0 59c-6 1-27 2-51 2-50 0-85-30-85-87l0-49-57 0 0-66 57 0 0-171-152 0c-46 0-83 37-83 83l0 274c0 46 37 83 83 83z"/>
<glyph glyph-name="icons-15" unicode="&#113;" d="M402 338c-11-5-22-8-34-10 12 8 22 20 26 34-11-7-24-12-38-15-11 12-27 19-44 19-33 0-60-27-60-60 0-5 0-10 2-14-50 3-95 26-124 63-6-9-9-19-9-30 0-21 10-39 26-50-10 0-19 3-28 7l0 0c0-30 22-54 49-59-5-2-9-3-14-3-4 0-8 1-12 1 8-23 30-41 56-41-20-16-46-26-74-26-5 0-10 0-14 1 26-17 58-27 92-27 110 0 171 91 171 171 0 3 0 5-1 8 12 8 22 19 30 31z m74 55l0-274c0-46-37-83-83-83l-274 0c-46 0-83 37-83 83l0 274c0 46 37 83 83 83l274 0c46 0 83-37 83-83z"/>
<glyph glyph-name="icons-16" unicode="&#114;" d="M481 396c-12-19-28-35-46-48 0-4 0-8 0-12 0-122-93-263-263-263-52 0-100 15-141 42 7-1 14-2 22-2 43 0 83 15 115 40-41 1-75 27-87 64 6-1 12-2 18-2 8 0 16 2 24 4-42 8-74 45-74 90l0 1c12-6 27-11 42-11-25 16-42 45-42 77 0 17 5 33 13 46 46-56 114-92 191-96-2 6-3 14-3 21 0 51 41 92 93 92 26 0 50-11 67-29 21 4 41 12 59 22-7-21-22-39-41-51 19 2 37 8 53 15z"/>
<glyph glyph-name="icons-17" unicode="&#115;" d="M402 171c0 2 0 3 0 5-2 5-44 26-52 31-5 3-12 9-18 9-13 0-31-37-43-37-5 0-12 5-18 8-37 21-63 47-85 85-2 5-8 12-8 18 0 11 38 29 38 42 0 6-6 13-10 18-4 8-25 50-30 52-2 1-4 1-5 1-7 0-22-4-29-7-19-8-32-44-32-64 0-19 7-37 14-54 23-63 91-131 153-154 18-7 36-14 55-14 19 0 55 13 64 32 3 7 6 22 6 29z m74 222l0-274c0-46-37-83-83-83l-274 0c-46 0-83 37-83 83l0 274c0 46 37 83 83 83l274 0c46 0 83-37 83-83z"/>
<glyph glyph-name="icons-18" unicode="&#116;" d="M380 509l0-76-45 0c-35 0-42-16-42-41l0-54 84 0-11-84-73 0 0-218-88 0 0 218-72 0 0 84 72 0 0 63c0 72 45 111 109 111 31 0 58-2 66-3z"/>
<glyph glyph-name="icons-20" unicode="&#118;" d="M475 342c0 80-54 97-100 97-42 0-90-46-105-64-7-8-21-8-28 0-15 18-63 64-105 64-46 0-100-17-100-97 0-52 52-101 53-102l166-160 166 160c1 1 53 50 53 102z m37 0c0-69-63-126-65-129l-178-171c-4-4-8-5-13-5-5 0-9 1-13 5l-178 172c-2 2-65 59-65 128 0 84 51 134 137 134 50 0 96-40 119-62 23 22 69 62 119 62 86 0 137-50 137-134z"/>
<glyph glyph-name="icons-21" unicode="&#119;" d="M476 128l0-37c0-10-9-18-19-18l-402 0c-10 0-19 8-19 18l0 37c0 10 9 18 19 18l402 0c10 0 19-8 19-18z m0 146l0-36c0-10-9-19-19-19l-402 0c-10 0-19 9-19 19l0 36c0 10 9 19 19 19l402 0c10 0 19-9 19-19z m0 147l0-37c0-10-9-18-19-18l-402 0c-10 0-19 8-19 18l0 37c0 10 9 18 19 18l402 0c10 0 19-8 19-18z"/>
<glyph glyph-name="icons-22" unicode="&#120;" d="M319 252c0-93-62-159-156-159-90 0-163 73-163 163 0 90 73 163 163 163 44 0 80-16 109-43l-44-42c-12 11-33 25-65 25-56 0-101-46-101-103 0-57 45-103 101-103 64 0 88 47 92 70l-92 0 0 56 154 0c1-8 2-16 2-27z m193 27l0-46-47 0 0-47-46 0 0 47-47 0 0 46 47 0 0 47 46 0 0-47z"/>
<glyph glyph-name="icons-23" unicode="&#121;" d="M299 254c0 7-1 12-2 18l-104 0 0-38 62 0c-2-16-18-47-62-47-37 0-68 31-68 69 0 38 31 69 68 69 21 0 36-9 44-17l30 29c-19 18-44 29-74 29-61 0-110-49-110-110 0-61 49-110 110-110 64 0 106 45 106 108z m98-14l31 0 0 32-31 0 0 31-31 0 0-31-32 0 0-32 32 0 0-31 31 0z m79 153l0-274c0-46-37-83-83-83l-274 0c-46 0-83 37-83 83l0 274c0 46 37 83 83 83l274 0c46 0 83-37 83-83z"/>
<glyph glyph-name="icons-24" unicode="&#122;" d="M393 476c46 0 83-37 83-83l0-274c0-46-37-83-83-83l-207 0c9 14 25 37 31 61 0 0 2 9 15 59 8-14 30-27 53-27 70 0 117 64 117 149 0 64-54 125-137 125-103 0-155-75-155-136 0-37 14-71 44-83 5-2 10 0 11 5 1 4 3 14 4 18 2 5 1 7-3 12-8 10-14 23-14 43 0 54 41 103 107 103 58 0 90-35 90-83 0-63-28-115-69-115-22 0-40 18-34 42 6 27 19 57 19 77 0 17-9 32-29 32-23 0-42-24-42-56 0 0 0-20 7-34-24-101-28-119-28-119-6-26-4-57-2-73l-52 0c-46 0-83 37-83 83l0 274c0 46 37 83 83 83z"/>
<glyph glyph-name="icons-25" unicode="&#65;" d="M476 256c0-121-99-220-220-220-22 0-42 4-62 10 8 13 17 30 22 47 0 0 2 9 15 60 8-15 30-28 54-28 70 0 119 65 119 151 0 65-56 126-140 126-104 0-157-75-157-137 0-38 15-72 45-84 5-2 10 0 11 5 1 4 4 14 5 18 1 5 1 7-3 12-9 11-15 24-15 43 0 56 42 105 108 105 59 0 92-36 92-84 0-63-28-117-70-117-23 0-40 19-35 43 7 28 20 58 20 78 0 18-10 33-30 33-23 0-42-25-42-57 0 0 0-21 7-35-24-102-28-120-28-120-4-16-5-35-4-50-78 34-132 111-132 201 0 121 99 220 220 220 121 0 220-99 220-220z"/>
<glyph glyph-name="icons-26" unicode="&#66;" d="M512 309l0-227c0-25-21-45-46-45l-420 0c-25 0-46 20-46 45l0 227c9-9 18-17 29-25 47-32 95-64 142-98 24-18 54-40 85-40l0 0c31 0 61 22 85 40 47 34 95 66 142 98 11 8 20 16 29 25z m0 84c0-32-24-61-49-78-44-31-89-62-134-93-18-13-50-39-73-39l0 0c-23 0-55 26-73 39-45 31-90 62-134 93-20 14-49 46-49 72 0 28 15 52 46 52l420 0c25 0 46-21 46-46z"/>
<glyph glyph-name="icons-27" unicode="&#67;" d="M339 357c0-3-1-5-3-7l-112-112 112-113c2-1 3-4 3-6 0-2-1-5-3-7l-14-14c-2-2-4-3-7-3-2 0-4 1-6 3l-133 133c-2 2-3 5-3 7 0 2 1 5 3 6l133 134c2 1 4 3 6 3 3 0 5-2 7-3l14-15c2-1 3-4 3-6z"/>
<glyph glyph-name="icons-28" unicode="&#68;" d="M399 302c0-2-1-5-3-7l-133-133c-2-2-5-3-7-3-2 0-5 1-7 3l-133 133c-1 2-3 5-3 7 0 2 2 5 3 6l15 15c1 1 4 3 6 3 2 0 5-2 7-3l112-113 112 113c2 1 5 3 7 3 2 0 5-2 7-3l14-15c2-1 3-4 3-6z"/>
<glyph glyph-name="icons-29" unicode="&#69;" d="M399 174c0-3-1-5-3-7l-14-14c-2-2-4-3-7-3-2 0-5 1-7 3l-112 112-112-112c-2-2-5-3-7-3-2 0-5 1-6 3l-15 14c-1 2-3 4-3 7 0 2 2 5 3 6l133 134c2 1 5 2 7 2 2 0 5-1 7-2l133-134c2-1 3-4 3-6z"/>
<glyph glyph-name="icons-30" unicode="&#70;" d="M339 238c0-2-1-5-3-7l-133-133c-2-2-4-3-6-3-3 0-5 1-7 3l-14 14c-2 2-3 4-3 7 0 2 1 5 3 6l112 113-112 112c-2 2-3 4-3 7 0 2 1 5 3 6l14 15c2 1 4 3 7 3 2 0 4-2 6-3l133-134c2-1 3-4 3-6z"/>
<glyph glyph-name="icons-31" unicode="&#71;" d="M504 509c6-5 8-11 7-19l-73-438c-1-5-4-10-9-13-3-1-6-2-9-2-2 0-4 0-7 1l-150 62-85-94c-4-4-8-6-14-6-2 0-4 1-6 1-7 3-12 10-12 18l0 129-135 55c-6 2-10 8-11 15-1 7 3 14 9 17l475 274c6 4 14 4 20 0z m-98-428l63 377-409-236 96-39 246 183-137-228z"/>
<glyph glyph-name="icons-32" unicode="&#72;" d="M504 509c6-5 8-11 7-19l-73-438c-1-5-4-10-9-13-3-1-6-2-9-2-2 0-4 0-7 1l-129 53-69-84c-3-4-9-7-14-7-2 0-4 1-6 1-7 3-12 10-12 18l0 99 246 303-305-265-113 47c-6 2-10 8-11 15 0 7 3 14 9 17l475 274c3 2 6 3 9 3 4 0 8-1 11-3z"/>
<glyph glyph-name="icons-33" unicode="&#73;" d="M512 325l0-279c0-25-21-46-46-46l-420 0c-25 0-46 21-46 46l0 279c0 3 1 5 3 7 30 26 30 30 180 138 18 14 49 42 73 42 24 0 56-29 73-42 150-108 150-112 180-138 2-2 3-4 3-7z m-161-167c44 32 76 55 98 72 4 3 5 9 2 13l-11 15c-3 4-9 4-13 1-22-16-53-39-98-71-17-13-49-42-73-42-24 0-56 29-73 42-45 32-76 55-98 71-4 3-10 3-13-1l-11-15c-3-4-2-10 2-13 22-17 54-40 98-72 22-16 58-48 95-48 38 0 74 33 95 48z"/>
<glyph glyph-name="icons-34" unicode="&#74;" d="M299 254c0 6-1 12-2 18l-104 0 0-38 62 0c-4-30-33-47-62-47-38 0-68 31-68 69 0 38 30 69 68 69 16 0 32-5 44-17l30 29c-21 19-46 29-74 29-61 0-110-49-110-110 0-61 49-110 110-110 64 0 106 45 106 108z m98-14l31 0 0 32-31 0 0 31-31 0 0-31-32 0 0-32 32 0 0-31 31 0z m79 16c0-121-99-220-220-220-121 0-220 99-220 220 0 121 99 220 220 220 121 0 220-99 220-220z"/>
<glyph glyph-name="icons-35" unicode="&#75;" d="M340 139l42 198c3 17-7 24-18 20l-247-95c-17-7-16-16-3-21l63-19 147 92c7 4 13 2 8-3l-119-107-4-65c6 0 9 3 13 6l31 30 64-47c11-7 20-3 23 11z m172 117c0-141-115-256-256-256-141 0-256 115-256 256 0 142 115 256 256 256 141 0 256-114 256-256z"/>
<glyph glyph-name="icons-36" unicode="&#76;" d="M361 158c0 51-12 107-63 107-15-9-37-25-60-25-24 0-45 16-61 25-51 0-63-56-63-107 0-28 18-48 41-48l165 0c23 0 41 20 41 48z m-49 170c0 41-33 75-74 75-41 0-75-34-75-75 0-41 34-74 75-74 41 0 74 33 74 74z m182-154l0-55c0-5-4-9-9-9l-28 0 0-64c0-26-20-46-45-46l-348 0c-25 0-46 20-46 46l0 421c0 25 21 45 46 45l348 0c25 0 45-20 45-45l0-64 28 0c5 0 9-4 9-10l0-55c0-5-4-9-9-9l-28 0 0-36 28 0c5 0 9-4 9-9l0-55c0-5-4-10-9-10l-28 0 0-36 28 0c5 0 9-4 9-9z"/>
<glyph glyph-name="icons-37" unicode="&#77;" d="M312 328c0-41-33-74-74-74-41 0-75 33-75 74 0 41 34 75 75 75 41 0 74-34 74-75z m-14-63c55 0 63-65 63-107 0-24-15-48-41-48l-165 0c-26 0-41 24-41 48 0 41 8 107 62 107l1 0c19-11 38-25 61-25 22 0 41 14 60 25z m196 73c0-4-4-9-9-9l-28 0 0-36 28 0c5 0 9-5 9-9l0-55c0-5-4-10-9-10l-28 0 0-36 28 0c5 0 9-4 9-9l0-55c0-5-4-9-9-9l-28 0 0-64c0-26-20-46-45-46l-348 0c-25 0-46 20-46 46l0 421c0 25 21 45 46 45l348 0c25 0 45-20 45-45l0-64 28 0c5 0 9-5 9-10z m-73-292l0 421c0 4-5 9-9 9l-348 0c-5 0-9-5-9-9l0-421c0-5 4-10 9-10l348 0c4 0 9 5 9 10z"/>
<glyph glyph-name="icons-38" unicode="&#78;" d="M421 251l11-14c3-4 3-10-1-13-29-22-94-73-97-75-21-17-48-39-78-39l0 0c-30 0-57 22-78 39-3 3-66 51-94 73-4 3-5 9-2 13l11 15c3 4 9 5 13 1 19-15 47-36 87-67 14-11 43-38 63-38l0 0c20 0 49 27 63 38 42 32 70 54 89 69 4 3 10 2 13-2z m54-205l0 265c-28 27-24 24-156 127-14 11-43 38-63 38l0 0c-20 0-49-27-63-38-132-103-128-100-156-127l0-265c0-5 4-9 9-9l420 0c5 0 9 4 9 9z m37 265l0-265c0-25-21-46-46-46l-420 0c-25 0-46 21-46 46l0 265c0 10 4 20 12 27 58 54 126 101 166 135 20 16 48 39 78 39l0 0c30 0 58-23 78-39 37-31 109-82 166-135 8-7 12-17 12-27z"/>
<glyph glyph-name="icons-39" unicode="&#79;" d="M256 197c0 39-9 82-49 82-12-7-29-19-47-19-18 0-35 12-47 19-39 0-49-43-49-82 0-21 14-37 32-37l128 0c18 0 32 16 32 37z m-39 130c0 32-26 57-57 57-31 0-57-25-57-57 0-31 26-56 57-56 31 0 57 25 57 56z m231-127l0 16c0 5-3 8-8 8l-144 0c-4 0-8-3-8-8l0-16c0-4 4-8 8-8l144 0c5 0 8 4 8 8z m0 65l0 14c0 5-4 9-9 9l-142 0c-5 0-9-4-9-9l0-14c0-5 4-9 9-9l142 0c5 0 9 4 9 9z m0 63l0 16c0 5-3 8-8 8l-144 0c-4 0-8-3-8-8l0-16c0-4 4-8 8-8l144 0c5 0 8 4 8 8z m64 80l0-304c0-22-18-40-40-40l-88 0 0 24c0 5-3 8-8 8l-16 0c-4 0-8-3-8-8l0-24-192 0 0 24c0 5-3 8-8 8l-16 0c-4 0-8-3-8-8l0-24-88 0c-22 0-40 18-40 40l0 304c0 22 18 40 40 40l432 0c22 0 40-18 40-40z"/>
<glyph glyph-name="icons-40" unicode="&#80;" d="M256 197c0-21-14-37-32-37l-128 0c-18 0-32 16-32 37 0 39 10 82 49 82 12-7 29-19 47-19 18 0 35 12 47 19 40 0 49-43 49-82z m-39 130c0-31-26-56-57-56-31 0-57 25-57 56 0 32 26 57 57 57 31 0 57-25 57-57z m231-111l0-16c0-4-3-8-8-8l-144 0c-4 0-8 4-8 8l0 16c0 5 4 8 8 8l144 0c5 0 8-3 8-8z m0 63l0-14c0-5-4-9-9-9l-142 0c-5 0-9 4-9 9l0 14c0 5 4 9 9 9l142 0c5 0 9-4 9-9z m0 65l0-16c0-4-3-8-8-8l-144 0c-4 0-8 4-8 8l0 16c0 5 4 8 8 8l144 0c5 0 8-3 8-8z m32-240l0 304c0 4-4 8-8 8l-432 0c-4 0-8-4-8-8l0-304c0-4 4-8 8-8l88 0 0 24c0 5 4 8 8 8l16 0c5 0 8-3 8-8l0-24 192 0 0 24c0 5 4 8 8 8l16 0c5 0 8-3 8-8l0-24 88 0c4 0 8 4 8 8z m32 304l0-304c0-22-18-40-40-40l-432 0c-22 0-40 18-40 40l0 304c0 22 18 40 40 40l432 0c22 0 40-18 40-40z"/>
<glyph glyph-name="icons-41" unicode="&#81;" d="M435 130c-7 53-29 100-78 107-25-27-61-45-101-45-40 0-76 18-101 45-49-7-71-54-78-107 40-56 105-93 179-93 74 0 139 37 179 93z m-69 199c0 61-49 110-110 110-61 0-110-49-110-110 0-60 49-109 110-109 61 0 110 49 110 109z m146-73c0-141-114-256-256-256-141 0-256 115-256 256 0 142 115 256 256 256 141 0 256-114 256-256z"/>
<glyph glyph-name="icons-42" unicode="&#82;" d="M505 477c4-3 7-8 7-13l0-352c0-6-4-12-10-15l-160-64c-4-1-8-1-12 0l-154 62-154-62c-2-1-4-1-6-1-3 0-6 1-9 3-4 3-7 8-7 13l0 352c0 7 4 13 10 15l160 64c4 2 8 2 12 0l154-62 154 62c5 2 11 1 15-2z m-321-33l0-318 144-57 0 317z m-152-55l0-317 136 54 0 318z m448-266l0 317-136-54 0-317z"/>
<glyph glyph-name="icons-43" unicode="&#83;" d="M146 512c5 0 9-4 9-9l0-421c0-3-2-6-4-8l-138-73c-1-1-2-1-4-1-5 0-9 4-9 9l0 421c0 3 2 6 5 8l137 73c1 1 3 1 4 1z m357 0c5 0 9-4 9-9l0-421c0-3-2-6-5-8l-137-73c-1-1-3-1-4-1-5 0-9 4-9 9l0 421c0 3 2 6 4 8l138 73c1 1 2 1 4 1z m-320 0c1 0 3 0 4-1l146-73c3-2 5-5 5-8l0-421c0-5-4-9-9-9-1 0-3 0-4 1l-146 73c-3 2-5 5-5 8l0 421c0 5 4 9 9 9z"/>
<glyph glyph-name="icons-44" unicode="&#84;" d="M394 269l4-70c2-31-64-57-142-57-79 0-144 26-142 57l4 70 127-40c4-1 7-1 11-1 3 0 7 0 11 1z m118 72c0-3-2-5-5-6l-249-79c-1 0-1 0-2 0-1 0-1 0-2 0l-145 46c-13-10-22-34-23-64 8-5 14-14 14-25 0-10-6-18-13-23l13-97c0-2-1-4-2-5-2-2-4-3-6-3l-42 0c-2 0-4 1-6 3-1 1-2 3-1 5l13 97c-8 5-13 13-13 23 0 11 6 20 14 25 1 26 8 54 22 73l-74 24c-3 1-5 3-5 6 0 3 2 6 5 7l249 78c1 1 1 1 2 1 1 0 1 0 2-1l249-78c3-1 5-4 5-7z"/>
<glyph glyph-name="icons-45" unicode="&#85;" d="M475 238c-27 42-64 78-108 101 11-20 17-42 17-65 0-70-57-128-128-128-71 0-128 58-128 128 0 23 6 45 17 65-44-23-81-59-108-101 48-76 127-128 219-128 92 0 171 52 219 128z m-205 110c0 7-7 13-14 13-48 0-87-39-87-87 0-7 6-13 14-13 7 0 14 6 14 13 0 33 26 60 59 60 7 0 14 6 14 14z m242-110c0-7-2-14-6-20-52-86-149-145-250-145-101 0-198 59-250 145-4 6-6 13-6 20 0 7 2 14 6 20 52 86 149 144 250 144 101 0 198-58 250-144 4-6 6-13 6-20z"/>
<glyph glyph-name="icons-46" unicode="&#86;" d="M302 125l0 204-92 0 0-204c0-10 8-15 18-15l55 0c10 0 19 5 19 15z m-131 241l56 0-36 46c-3 4-10 9-20 9-15 0-27-12-27-28 0-15 12-27 27-27z m197 27c0 16-12 28-27 28-10 0-17-5-20-9l-36-46 56 0c15 0 27 12 27 27z m108-73l0-91c0-5-4-10-10-10l-27 0 0-118c0-16-12-28-27-28l-312 0c-15 0-27 12-27 28l0 118-28 0c-5 0-9 5-9 10l0 91c0 5 4 9 9 9l126 0c-35 0-64 29-64 64 0 36 29 64 64 64 19 0 37-8 48-22l37-47 37 47c11 14 28 22 48 22 35 0 64-28 64-64 0-35-29-64-64-64l125 0c6 0 10-4 10-9z"/>
<glyph glyph-name="icons-47" unicode="&#87;" d="M421 229l0-138c0-10-9-18-19-18l-109 0 0 110-74 0 0-110-109 0c-10 0-19 8-19 18l0 138c0 0 1 1 1 1l164 136 164-136c1 0 1-1 1-1z m63 19l-17-21c-2-1-4-3-6-3l-1 0c-2 0-4 1-6 2l-198 165-198-165c-2-1-4-2-7-2-2 0-4 2-6 3l-18 21c-3 4-2 10 2 13l205 172c12 10 32 10 44 0l69-59 0 56c0 5 4 9 10 9l55 0c5 0 9-4 9-9l0-117 62-52c4-3 5-9 1-13z"/>
<glyph glyph-name="icons-48" unicode="&#88;" d="M475 82l0 220c-6-7-12-13-19-19-41-31-82-63-122-97-21-18-48-40-78-40l0 0c-30 0-57 22-78 40-40 34-81 66-122 97-7 6-13 12-19 19l0-220c0-4 4-9 9-9l420 0c5 0 9 5 9 9z m0 301c0 7 2 19-9 19l-420 0c-5 0-9-4-9-9 0-32 16-61 42-81 38-30 76-60 114-90 15-13 43-39 63-39l0 0c20 0 48 26 63 39 38 30 76 60 114 90 19 15 42 46 42 71z m37 10l0-311c0-25-21-45-46-45l-420 0c-25 0-46 20-46 45l0 311c0 25 21 46 46 46l420 0c25 0 46-21 46-46z"/>
<glyph glyph-name="icons-49" unicode="&#89;" d="M347 274c0 71-57 129-128 129-70 0-128-58-128-129 0-70 58-128 128-128 71 0 128 58 128 128z m147-238c0-20-17-36-37-36-9 0-19 4-25 11l-99 98c-33-24-73-36-114-36-111 0-201 90-201 201 0 112 90 202 201 202 112 0 202-90 202-202 0-40-13-80-36-114l98-98c7-6 11-16 11-26z"/>
<glyph glyph-name="icons-50" unicode="&#90;" d="M343 225l88 85-121 18-54 109-54-109-121-18 88-85-21-120 108 57 108-57z m151 102c0-5-4-10-8-13l-103-102 24-143c1-2 1-3 1-5 0-8-4-15-12-15-4 0-8 2-12 4l-128 67-128-67c-4-2-8-4-12-4-8 0-12 7-12 15 0 2 0 3 1 5l24 143-104 102c-3 3-7 8-7 13 0 9 9 12 16 13l144 21 64 130c3 6 7 12 14 12 7 0 11-6 14-12l64-130 144-21c7-1 16-4 16-13z"/>
<glyph glyph-name="icons-51" unicode="&#48;" d="M494 327c0-5-4-10-8-13l-103-102 24-143c1-2 1-3 1-5 0-8-4-15-12-15-4 0-8 2-12 4l-128 67-128-67c-4-2-8-4-12-4-8 0-12 7-12 15 0 2 0 3 1 5l24 143-104 102c-3 3-7 8-7 13 0 9 9 12 16 13l144 21 64 130c3 6 7 12 14 12 7 0 11-6 14-12l64-130 144-21c7-1 16-4 16-13z"/>
<glyph glyph-name="icons-52" unicode="&#49;" d="M256 37c-5 0-9 1-13 5l-178 172c-2 2-65 59-65 128 0 84 51 134 137 134 50 0 96-40 119-62 23 22 69 62 119 62 86 0 137-50 137-134 0-69-63-126-65-129l-178-171c-4-4-8-5-13-5z"/>
<glyph glyph-name="icons-53" unicode="&#50;" d="M426 134c0-7-3-14-8-19l-39-39c-5-5-12-8-20-8-7 0-14 3-19 8l-84 84-84-84c-5-5-12-8-20-8-7 0-14 3-19 8l-39 39c-5 5-8 12-8 19 0 7 3 15 8 20l84 84-84 84c-5 5-8 12-8 19 0 7 3 15 8 20l39 39c5 5 12 8 19 8 8 0 15-3 20-8l84-84 84 84c5 5 12 8 19 8 8 0 15-3 20-8l39-39c5-5 8-13 8-20 0-7-3-14-8-19l-84-84 84-84c5-5 8-13 8-20z"/>
<glyph glyph-name="icons-54" unicode="&#51;" d="M329 329c0 41-33 74-73 74-40 0-73-33-73-74 0-40 33-73 73-73 40 0 73 33 73 73z m73 0c0-17-2-35-9-51l-104-221c-6-13-19-21-33-21-14 0-27 8-33 21l-104 221c-7 16-9 34-9 51 0 81 65 147 146 147 81 0 146-66 146-147z"/>
<glyph glyph-name="icons-55" unicode="&#52;" d="M104 108l66 0 0 198-66 0z m70 260c0 19-14 34-36 34-23 0-38-15-38-34 0-19 14-35 37-35l0 0c23 0 37 16 37 35z m168-260l66 0 0 114c0 61-33 89-76 89-36 0-51-20-60-33l1 0 0 28-67 0c0 0 1-18 0-198l67 0 0 111c0 6 0 12 2 16 4 12 15 24 34 24 23 0 33-18 33-45z m134 285l0-274c0-46-37-83-83-83l-274 0c-46 0-83 37-83 83l0 274c0 46 37 83 83 83l274 0c46 0 83-37 83-83z"/>
<glyph glyph-name="icons-56" unicode="&#53;" d="M455 98c21-34 6-62-34-62l-330 0c-40 0-55 28-34 62l144 227 0 114-18 0c-10 0-19 8-19 18 0 10 9 19 19 19l146 0c10 0 18-9 18-19 0-10-8-18-18-18l-18 0 0-114z m-223 208l-78-123 204 0-78 123-6 8 0 125-36 0 0-125z"/>
<glyph glyph-name="icons-57" unicode="&#54;" d="M165 124c0 18-15 33-33 33-18 0-33-15-33-33 0-18 15-33 33-33 18 0 33 15 33 33z m-99 132l99 0 0 66-41 0c-1 0-4-1-5-2l-51-50c0-2-2-5-2-6z m330-132c0 18-14 33-33 33-18 0-33-15-33-33 0-18 15-33 33-33 19 0 33 15 33 33z m33 173l0 50c0 5-3 8-8 8l-58 0 0 58c0 5-3 8-8 8l-50 0c-4 0-8-3-8-8l0-58-58 0c-4 0-8-3-8-8l0-50c0-4 4-8 8-8l58 0 0-58c0-4 4-8 8-8l50 0c5 0 8 4 8 8l0 58 58 0c5 0 8 4 8 8z m66 141l0-297c0-10-7-17-16-17l-50 0c0-36-29-66-66-66-36 0-66 30-66 66l-99 0c0-36-29-66-66-66-37 0-66 30-66 66l-33 0c-9 0-16 7-16 17 0 9 7 16 16 16l0 107c0 9 5 22 12 28l51 52c6 6 19 11 28 11l41 0 0 83c0 9 8 16 17 16l297 0c9 0 16-7 16-16z"/>
<glyph glyph-name="icons-58" unicode="&#55;" d="M366 192l0 55c0 5-4 9-9 9l-64 0 0 64c0 5-4 9-10 9l-54 0c-6 0-10-4-10-9l0-64-64 0c-5 0-9-4-9-9l0-55c0-5 4-9 9-9l64 0 0-64c0-5 4-9 10-9l54 0c6 0 10 4 10 9l0 64 64 0c5 0 9 4 9 9z m-183 210l146 0 0 37-146 0z m-110 0l0-365-9 0c-35 0-64 29-64 64l0 237c0 36 29 64 64 64z m338 0l0-365-310 0 0 365 45 0 0 46c0 15 13 28 28 28l164 0c15 0 28-13 28-28l0-46z m101-64l0-237c0-35-29-64-64-64l-9 0 0 365 9 0c35 0 64-28 64-64z"/>
<glyph glyph-name="icons-59" unicode="&#56;" d="M55 36l402 0 0 293-402 0z m109 348l0 83c0 5-4 9-9 9l-18 0c-5 0-9-4-9-9l0-83c0-5 4-9 9-9l18 0c5 0 9 4 9 9z m220 0l0 83c0 5-4 9-9 9l-18 0c-6 0-10-4-10-9l0-83c0-5 4-9 10-9l18 0c5 0 9 4 9 9z m110 19l0-367c0-20-17-36-37-36l-402 0c-20 0-37 16-37 36l0 367c0 20 17 36 37 36l36 0 0 28c0 25 21 45 46 45l18 0c25 0 46-20 46-45l0-28 110 0 0 28c0 25 20 45 46 45l18 0c25 0 46-20 46-45l0-28 36 0c20 0 37-16 37-36z"/>
<glyph glyph-name="icons-60" unicode="&#57;" d="M329 256c0 40-33 73-73 73-40 0-73-33-73-73 0-40 33-73 73-73 40 0 73 33 73 73z m40 0c0-62-51-113-113-113-62 0-113 51-113 113 0 62 51 113 113 113 62 0 113-51 113-113z m30 117c0-14-11-26-26-26-14 0-26 12-26 26 0 15 12 27 26 27 15 0 26-12 26-27z m-143 63c-32 0-101 3-130-9-10-4-17-8-25-16-8-8-12-15-16-25-12-29-9-98-9-130 0-32-3-101 9-129 4-10 8-18 16-26 8-7 15-12 25-16 29-12 98-9 130-9 32 0 101-3 129 9 10 4 18 9 26 16 7 8 12 16 16 26 12 28 9 97 9 129 0 32 3 101-9 130-4 10-9 17-16 25-8 8-16 12-26 16-28 12-97 9-129 9z m220-180c0-30 0-60-2-91-2-35-10-66-35-92-26-25-57-33-92-35-31-2-61-2-91-2-30 0-60 0-91 2-35 2-66 10-92 35-26 26-34 57-35 92-2 31-2 61-2 91 0 30 0 60 2 91 1 35 9 66 35 92 26 26 57 34 92 35 31 2 61 2 91 2 30 0 60 0 91-2 35-1 66-9 92-35 25-26 33-57 35-92 2-31 2-61 2-91z"/>
<glyph glyph-name="icons-61" unicode="&#33;" d="M372 208c0 50-49 67-89 76l-30 7c-22 5-38 9-38 26 0 15 16 22 41 22 45 0 46-33 74-33 18 0 29 14 29 31 0 33-54 54-108 54-50 0-107-21-107-79 0-48 32-65 74-75l41-11c26-6 42-9 42-27 0-15-17-26-42-26-53 0-56 44-86 44-20 0-29-14-29-30 0-35 54-64 118-64 54 0 110 27 110 85z m104-62c0-60-50-110-110-110-25 0-49 9-67 23-14-3-28-4-43-4-111 0-201 90-201 201 0 15 1 29 4 43-14 19-23 42-23 67 0 61 49 110 110 110 25 0 48-9 67-23 14 3 28 4 43 4 111 0 201-90 201-201 0-14-1-29-4-43 14-18 23-42 23-67z"/>
<glyph glyph-name="telephone" unicode="&#34;" d="M435 152c-1 6-4 10-9 13l-74 43 0 0c-3 2-7 3-10 3-6 0-12-3-16-7l-22-21c-1-1-4-2-5-3 0 0-25 2-71 48-46 46-48 71-48 71 0 1 2 4 3 5l18 19c7 6 8 17 5 26l-41 76c-3 6-9 10-15 10-5 0-9-2-13-5l-50-50c-5-5-9-14-10-20 0-4-9-81 97-186 89-90 159-97 179-97 4 0 6 0 7 0 6 1 15 5 20 10l50 50c4 5 6 10 5 15z"/>
<glyph glyph-name="phone" unicode="&#35;" d="M287 225c56 56 76 91 61 106 0 0-4 4-4 4-11 10-18 18-21 24-4 7-5 16-2 28 2 12 10 27 25 45 6 8 13 15 19 20 5 5 11 8 17 8 7 1 12 1 16 1 4 0 9-2 15-7 6-4 10-7 12-9 2-2 7-6 13-13 7-7 10-10 11-11 16-17 15-50-3-99-18-50-53-100-104-151-52-51-102-86-152-105-49-19-82-20-98-4-1 1-5 5-12 12-7 7-12 11-13 13-1 1-4 5-9 12-5 6-7 12-7 16 1 4 1 9 1 15 1 6 3 12 8 18 5 6 11 12 19 19 15 12 27 20 36 24 10 4 19 5 28 1 9-4 15-7 18-9 3-3 10-9 20-19 15-15 50 5 106 61"/>
<glyph glyph-name="phone-square" unicode="&#36;" d="M402 171c0 2 0 4 0 5-1 1-5 4-11 8-7 4-15 9-26 14l-15 9c-1 0-2 1-5 3-3 2-5 4-7 5-2 1-4 1-6 1-4 0-8-3-14-9-5-6-11-13-16-19-5-6-10-9-13-9-1 0-2 0-4 1-2 0-4 1-5 1-1 1-2 2-5 3-2 1-3 2-4 3-18 10-35 22-48 36-14 13-26 30-36 48-1 1-2 2-3 4-1 3-2 4-3 5 0 1-1 3-1 5-1 2-1 3-1 4 0 3 2 6 5 10 4 4 9 8 13 11 5 3 9 7 13 11 4 4 6 8 6 11 0 2 0 4-1 6-1 2-3 4-5 7-2 3-3 4-3 5-1 1-2 4-5 8-2 5-4 9-7 13-2 5-5 9-7 14-3 5-5 9-8 12-2 3-3 4-4 5-1 0-3 0-5 0-9 0-19-2-29-6-8-4-16-13-23-27-6-14-9-26-9-37 0-3 0-7 0-10 1-3 1-6 2-9 0-2 1-5 2-9 2-4 3-7 3-9 1-1 2-4 4-9 2-5 3-7 3-9 11-31 32-61 62-91 30-30 60-51 91-62 2 0 4-1 9-3 5-2 8-3 9-4 2 0 5-1 9-3 4-1 7-2 9-2 3-1 6-1 9-2 3 0 7 0 10 0 11 0 23 3 37 9 14 7 23 15 27 23 4 10 6 20 6 29z m73 222l0-274c0-23-8-42-24-58-16-16-35-24-58-24l-274 0c-23 0-42 8-58 24-16 16-24 35-24 58l0 274c0 23 8 42 24 58 16 16 35 24 58 24l274 0c23 0 42-8 58-24 16-16 24-35 24-58z"/>
<glyph glyph-name="bulb" unicode="&#37;" d="M256 512c-97 0-176-79-176-176 0-64 59-133 80-193 33-89 29-143 96-143 68 0 63 53 96 143 21 60 80 129 80 193 0 97-79 176-176 176z m41-435l-79-10c-3 8-6 18-9 31 0 0-1 0-1 0l99 12c-1-4-2-9-4-14-2-7-4-13-6-19z m-93 36c-3 10-6 20-10 31l124 0c-2-6-4-12-5-17z m52-81c-16 0-24 2-32 20l68 8c-10-26-17-28-36-28z m75 144l-150 0c-8 17-17 35-27 51-20 38-42 76-42 109 0 79 65 144 144 144 79 0 144-65 144-144 0-32-22-71-42-109-10-17-19-34-27-51z m-75 256c-53 0-96-43-96-96 0-4 4-8 8-8 4 0 8 4 8 8 0 44 36 80 80 80 4 0 8 4 8 8 0 4-4 8-8 8z"/>
<glyph glyph-name="youtube" unicode="&#97;" d="M314 157l0-61c0-12-4-19-11-19-5 0-9 2-13 6l0 86c4 5 8 7 13 7 7 0 11-7 11-19z m97-1l0-13-26 0 0 13c0 13 4 20 13 20 8 0 13-7 13-20z m-276 63l30 0 0 26-89 0 0-26 30 0 0-163 29 0z m82-163l25 0 0 141-25 0 0-108c-6-8-11-12-16-12-4 0-6 2-6 6-1 1-1 4-1 10l0 104-25 0 0-112c0-9 1-16 2-20 2-7 8-11 17-11 9 0 19 6 29 17z m122 42l0 57c0 13 0 23-2 28-3 11-10 16-20 16-10 0-19-5-27-16l0 62-25 0 0-189 25 0 0 14c9-11 17-16 27-16 10 0 17 5 20 16 2 5 2 14 2 28z m97 3l0 4-26 0c0-10 0-16-1-18-1-6-5-10-11-10-9 0-13 7-13 20l0 25 51 0 0 29c0 15-3 26-8 33-7 10-17 15-30 15-13 0-23-5-31-15-5-7-8-18-8-33l0-49c0-15 3-26 9-33 7-10 17-15 31-15 13 0 24 5 30 15 4 5 6 10 6 16 1 1 1 7 1 16z m-174 261l0 60c0 13-4 20-12 20-8 0-12-7-12-20l0-60c0-13 4-20 12-20 8 0 12 7 12 20z m206-215c0-44-3-77-8-100-2-11-8-20-16-28-9-7-18-12-29-13-35-4-88-6-159-6-71 0-124 2-159 6-11 1-20 6-29 13-8 8-14 17-16 28-5 22-8 55-8 100 0 45 3 78 8 100 2 12 8 21 16 29 9 7 18 12 30 13 35 4 87 6 158 6 71 0 124-2 159-6 11-1 20-6 29-13 8-8 14-17 16-29 5-21 8-54 8-100z m-285 365l29 0-35-114 0-77-28 0 0 77c-3 14-9 34-18 61-7 19-13 37-18 53l30 0 20-75z m105-95l0-50c0-16-2-27-8-34-7-10-17-14-30-14-13 0-23 4-30 14-5 7-8 19-8 34l0 50c0 15 3 26 8 33 7 10 17 15 30 15 13 0 23-5 30-15 6-7 8-18 8-33z m96 46l0-142-26 0 0 15c-10-12-20-17-29-17-9 0-15 3-17 10-2 5-3 12-3 22l0 112 26 0 0-105c0-6 1-9 1-10 0-4 2-6 6-6 5 0 10 4 16 12l0 109z"/>
<glyph glyph-name="youtube-play" unicode="&#117;" d="M366 256c0 7-3 12-9 15l-146 92c-6 4-12 4-19 0-6-3-9-8-9-16l0-182c0-8 3-13 9-16 3-2 6-3 9-3 4 0 7 1 10 3l146 92c6 3 9 8 9 15z m146 0c0-18 0-33 0-43 0-10-1-23-3-39-1-16-3-30-6-42-3-14-10-26-20-35-10-10-22-15-35-17-43-4-106-7-192-7-86 0-149 3-192 7-13 2-25 7-35 17-10 9-17 21-20 35-3 12-5 26-6 42-2 16-3 29-3 39 0 10 0 25 0 43 0 18 0 33 0 43 0 10 1 23 3 39 1 16 3 30 6 42 3 14 10 26 20 35 10 10 22 15 35 17 43 4 106 7 192 7 86 0 149-3 192-7 13-2 25-7 35-17 10-9 17-21 20-35 3-12 5-26 6-42 2-16 3-29 3-39 0-10 0-25 0-43z"/>
<glyph glyph-name="youtube-square" unicode="&#38;" d="M299 140l0 45c0 9-3 14-8 14-3 0-7-2-10-5l0-64c3-3 7-4 10-4 5 0 8 4 8 14z m53 35l19 0 0 9c0 10-4 15-10 15-6 0-9-5-9-15z m-163 76l0-20-23 0 0-121-21 0 0 121-23 0 0 20z m57-36l0-105-19 0 0 11c-8-8-15-13-22-13-6 0-10 3-12 8-1 3-2 8-2 16l0 83 19 0 0-78c0-4 0-7 1-7 0-3 1-4 4-4 4 0 8 3 12 9l0 80z m72-32l0-42c0-10-1-17-2-21-2-8-7-12-15-12-7 0-13 4-20 12l0-10-19 0 0 141 19 0 0-46c7 7 13 11 20 11 8 0 13-4 15-12 1-4 2-11 2-21z m72-37l0-3c0-5 0-9-1-12 0-4-2-8-4-11-5-8-13-12-23-12-10 0-18 4-23 11-4 5-6 13-6 25l0 37c0 11 2 19 6 24 5 7 13 11 22 11 10 0 18-4 23-11 4-5 6-13 6-24l0-22-38 0 0-19c0-9 3-14 9-14 5 0 8 2 9 7 0 0 0 1 0 2 0 1 0 3 0 5l0 6z m-129 235l0-44c0-10-3-15-9-15-6 0-9 5-9 15l0 44c0 10 3 15 9 15 6 0 9-5 9-15z m152-203c0 33-2 58-5 74-2 8-6 15-13 21-6 6-13 9-21 10-26 3-65 4-118 4-52 0-92-1-117-4-9-1-16-4-22-10-6-6-11-13-12-21-4-17-6-41-6-74 0-34 2-59 6-75 1-8 6-15 12-20 6-6 13-9 21-10 26-3 66-5 118-5 52 0 92 2 118 5 8 1 15 4 21 10 6 5 11 12 12 20 4 16 6 41 6 75z m-216 186l26 84-21 0-15-55-15 55-22 0 7-19 6-20c7-20 11-35 13-45l0-58 21 0z m83-23l0 37c0 11-2 19-6 25-6 7-13 10-22 10-10 0-17-3-23-10-4-6-6-14-6-25l0-37c0-11 2-20 6-25 6-8 13-11 23-11 9 0 16 3 22 11 4 5 6 13 6 25z m52-35l19 0 0 106-19 0 0-81c-4-6-8-9-12-9-3 0-5 2-5 5 0 0 0 3 0 7l0 78-19 0 0-84c0-7 0-12 1-15 3-6 7-8 13-8 7 0 14 4 22 13z m143 87l0-274c0-23-8-42-24-58-16-16-35-24-58-24l-274 0c-23 0-42 8-58 24-16 16-24 35-24 58l0 274c0 23 8 42 24 58 16 16 35 24 58 24l274 0c23 0 42-8 58-24 16-16 24-35 24-58z"/>
<glyph glyph-name="icons-19" unicode="&#39;" d="M149 260c-12 26-21 61-21 106l-73 0 0-28c0-28 38-66 94-78z m308 78l0 28-73 0c0-45-9-80-21-106 56 12 94 50 94 78z m37 37l0-37c0-54-66-114-155-118-12-15-22-23-27-27-15-14-19-28-19-47 0-18 9-36 36-36 28 0 55-19 55-46l0-18c0-6-4-10-9-10l-238 0c-5 0-9 4-9 10l0 18c0 27 27 46 55 46 27 0 36 18 36 36 0 19-4 33-19 47-5 4-16 12-27 27-89 4-155 64-155 118l0 37c0 15 12 28 27 28l83 0 0 27c0 25 20 46 46 46l164 0c25 0 46-21 46-46l0-27 82 0c16 0 28-13 28-28z"/>
<glyph glyph-name="world" unicode="&#40;" d="M248 512c-137 0-248-111-248-248 0-137 111-248 248-248 137 0 248 111 248 248 0 137-111 248-248 248z m216-240l-96 0c-1 35-8 69-19 100 22 9 42 21 60 35 32-36 53-83 55-135z m-225-224c-26 23-49 51-65 85 21 6 43 10 66 11l0-96c0 0-1 0-1 0z m18 432c30-26 55-59 71-98-23-8-47-13-72-14l0 112c0 0 1 0 1 0z m26-3c45-8 84-28 115-58-17-13-35-24-55-32-14 35-35 65-60 90z m-43 3l0-112c-25 1-49 6-72 14 16 39 41 72 71 98 0 0 1 0 1 0z m-87-93c-20 8-38 19-55 32 31 30 70 50 115 58-25-25-46-55-60-90z m9-20c24-9 51-14 78-15l0-80-96 0c1 34 7 66 18 95z m78-111l0-96c-25-1-50-5-73-13-13 33-22 70-23 109z m-27-205c-40 7-76 24-105 49 16 11 33 20 51 27 14-29 32-54 54-76z m43-3l0 96c23-1 45-5 66-11-16-34-39-62-65-85 0 0-1 0-1 0z m81 79c18-7 35-16 51-27-29-25-65-42-105-49 22 22 40 47 54 76z m-8 20c-23 8-48 12-73 13l0 96 96 0c-1-39-10-76-23-109z m-73 125l0 80c27 1 54 6 78 15 11-29 17-62 18-95l-96 0z m-169 135c18-14 38-26 60-35-11-31-18-65-19-100l-96 0c2 52 23 99 55 135z m-55-151l96 0c1-41 10-79 24-114-20-8-39-19-56-31-38 37-62 88-64 145z m368-145c-17 12-36 23-56 31 14 35 23 73 24 114l96 0c-2-57-26-108-64-145z"/>
<glyph glyph-name="basket" unicode="&#41;" d="M102 77c0 13 6 25 16 36 10 10 22 15 36 15 14 0 26-5 36-15 10-11 15-23 15-36 0-15-5-27-15-37-10-9-22-14-36-14-14 0-26 5-36 14-10 10-16 22-16 37m256 0c0 13 6 25 16 36 10 10 22 15 36 15 14 0 26-5 36-15 10-11 15-23 15-36 0-15-5-27-15-37-10-9-22-14-36-14-14 0-26 5-36 14-10 10-16 22-16 37m-164 121c-13-4-19-8-18-12 1-5 8-7 23-7 0 0 287 0 287 0 0 0 0-39 0-39 0-7-3-10-10-10 0 0-66 0-66 0 0 0-256 0-256 0 0 0-13 0-13 0-7 0-10 3-10 10 0 0 0 39 0 39 0 0-5 24-5 24 0 0-50 232-50 232 0 0-50 0-50 0 0 0 0 41 0 41 0 7 3 10 10 10 0 0 80 0 80 0 7 0 10-3 10-10 0 0 0-44 0-44 0 0 360 0 360 0 0 0 0-140 0-140 0-8-3-12-9-13 0 0-283-81-283-81"/>
</font>
</defs>
</svg>
